<?xml version="1.0" encoding="UTF-8"?><svg id="a" xmlns="http://www.w3.org/2000/svg" viewBox="0 0 500 500"><rect x="56.35" y="125.24" width="5" height="300" rx="2.5" ry="2.5" style="fill:#cae3f4;"/><rect x="33.88" y="162.28" width="430" height="167.83" rx="10" ry="10" style="fill:#fff;"/><path d="M453.88,332.61H43.88c-6.89,0-12.5-5.61-12.5-12.5v-147.83c0-6.89,5.61-12.5,12.5-12.5h410c6.89,0,12.5,5.61,12.5,12.5v147.83c0,6.89-5.61,12.5-12.5,12.5ZM43.88,164.78c-4.14,0-7.5,3.36-7.5,7.5v147.83c0,4.14,3.36,7.5,7.5,7.5h410c4.14,0,7.5-3.36,7.5-7.5v-147.83c0-4.14-3.36-7.5-7.5-7.5H43.88Z" style="fill:#0070ba;"/><path d="M254.89,125h-4.46c-.5,0-.91-.12-1.23-.35-.32-.23-.55-.53-.67-.89l-1.46-4.32h-9.42l-1.46,4.32c-.11.32-.33.6-.66.86-.33.25-.73.38-1.21.38h-4.49l9.59-24.77h5.88l9.59,24.77ZM238.97,115.53h6.77l-2.28-6.78c-.15-.43-.32-.94-.52-1.52-.2-.58-.39-1.22-.59-1.9-.18.69-.37,1.33-.56,1.92-.19.59-.38,1.1-.54,1.53l-2.28,6.75Z" style="fill:#66cb92;"/><path d="M275.23,118.59c.14,0,.27.03.41.08.14.05.27.14.39.26l2.28,2.4c-1,1.3-2.25,2.29-3.75,2.95-1.5.66-3.28.99-5.33.99-1.88,0-3.57-.32-5.06-.96-1.49-.64-2.75-1.52-3.79-2.65-1.04-1.13-1.83-2.47-2.39-4.01-.56-1.55-.83-3.23-.83-5.04s.32-3.54.95-5.09c.63-1.55,1.52-2.88,2.66-4,1.14-1.12,2.5-1.99,4.09-2.62,1.59-.62,3.34-.94,5.25-.94.93,0,1.8.08,2.62.25.82.16,1.59.39,2.3.68.71.29,1.37.63,1.97,1.04.6.4,1.13.85,1.6,1.33l-1.94,2.6c-.12.16-.27.3-.44.43s-.41.2-.71.2c-.2,0-.4-.04-.58-.14-.18-.09-.37-.2-.58-.33-.21-.13-.43-.27-.67-.42-.24-.15-.53-.29-.87-.43-.33-.13-.73-.24-1.17-.33-.45-.09-.97-.14-1.57-.14-1.04,0-1.99.18-2.86.55-.86.37-1.6.9-2.22,1.58-.62.69-1.1,1.52-1.45,2.49s-.52,2.07-.52,3.28.17,2.4.52,3.38c.35.99.82,1.82,1.41,2.49.59.67,1.29,1.19,2.08,1.54.79.35,1.64.53,2.55.53.52,0,1-.03,1.43-.08.43-.05.83-.14,1.2-.26.37-.12.72-.29,1.05-.48s.67-.44,1.01-.74c.13-.11.28-.21.44-.28s.32-.11.49-.11Z" style="fill:#66cb92;"/><path d="M301.64,100.23v4.56h-6.97v20.21h-5.75v-20.21h-6.97v-4.56h19.69Z" style="fill:#66cb92;"/><path d="M313.03,125h-5.78v-24.77h5.78v24.77Z" style="fill:#66cb92;"/><path d="M318.3,100.23h4.62c.5,0,.91.11,1.22.34.32.23.54.53.68.9l4.79,13.26c.21.58.43,1.21.65,1.89.22.68.43,1.39.62,2.14.16-.75.34-1.46.55-2.14.21-.68.42-1.31.62-1.89l4.76-13.26c.11-.32.33-.6.66-.86.33-.25.73-.38,1.21-.38h4.66l-9.93,24.77h-5.2l-9.93-24.77Z" style="fill:#66cb92;"/><path d="M354.4,125h-5.78v-24.77h5.78v24.77Z" style="fill:#66cb92;"/><path d="M379.7,100.23v4.56h-6.97v20.21h-5.75v-20.21h-6.97v-4.56h19.69Z" style="fill:#66cb92;"/><path d="M397.14,115.59v9.42h-5.75v-9.42l-8.98-15.35h5.07c.5,0,.89.12,1.19.35s.53.53.71.89l3.5,7.21c.28.58.54,1.11.78,1.6.24.49.45.97.63,1.45.17-.49.38-.97.61-1.46.24-.49.49-1.01.76-1.58l3.47-7.21c.07-.15.16-.29.28-.44.12-.15.25-.28.41-.4.15-.12.33-.21.53-.29.2-.07.42-.11.65-.11h5.1l-8.98,15.35Z" style="fill:#66cb92;"/><rect x="33.77" y="373.24" width="50" height="50" rx="5" ry="5" style="fill:#fff;"/><path d="M78.77,425.74h-40c-4.14,0-7.5-3.36-7.5-7.5v-40c0-4.14,3.36-7.5,7.5-7.5h40c4.14,0,7.5,3.36,7.5,7.5v40c0,4.14-3.36,7.5-7.5,7.5ZM38.77,375.74c-1.38,0-2.5,1.12-2.5,2.5v40c0,1.38,1.12,2.5,2.5,2.5h40c1.38,0,2.5-1.12,2.5-2.5v-40c0-1.38-1.12-2.5-2.5-2.5h-40Z" style="fill:#cae3f4;"/><circle cx="58.88" cy="398.24" r="7.5" style="fill:#0070ba;"/><circle cx="440.05" cy="187.99" r="7.5" style="fill:#cae3f4;"/><rect x="33.88" y="74.76" width="50" height="50" rx="5" ry="5" style="fill:#fff;"/><path d="M78.88,127.26h-40c-4.14,0-7.5-3.36-7.5-7.5v-40c0-4.14,3.36-7.5,7.5-7.5h40c4.14,0,7.5,3.36,7.5,7.5v40c0,4.14-3.36,7.5-7.5,7.5ZM38.88,77.26c-1.38,0-2.5,1.12-2.5,2.5v40c0,1.38,1.12,2.5,2.5,2.5h40c1.38,0,2.5-1.12,2.5-2.5v-40c0-1.38-1.12-2.5-2.5-2.5h-40Z" style="fill:#cae3f4;"/><rect x="45.85" y="97.26" width="26.06" height="5" rx="2.5" ry="2.5" style="fill:#0070ba;"/><rect x="45.85" y="97.26" width="26.06" height="5" rx="2.5" ry="2.5" transform="translate(-40.88 158.64) rotate(-90)" style="fill:#0070ba;"/><path d="M152.09,373.28c-13.81,0-25,11.19-25,25s11.19,25,25,25,25-11.19,25-25-11.19-25-25-25ZM152.04,379.95c4.84,0,8.76,3.92,8.76,8.76s-3.92,8.76-8.76,8.76-8.76-3.92-8.76-8.76,3.92-8.76,8.76-8.76ZM168.13,410.03c-3.62,4.93-9.45,8.13-16.04,8.13s-12.42-3.2-16.04-8.13c-.32-.44-.39-1.02-.16-1.52,1.69-3.7,4.82-6.6,8.66-7.99.44-.16.93-.12,1.35.1,1.83.96,3.92,1.51,6.13,1.51s4.33-.55,6.17-1.53c.42-.22.9-.26,1.35-.1,3.88,1.39,7.03,4.3,8.73,8.02.23.49.16,1.08-.16,1.52Z" style="fill:#0070ba;"/><rect x="194.5" y="378.2" width="260" height="10" rx="5" ry="5" style="fill:#cae3f4;"/><rect x="194.5" y="408.36" width="180" height="10" rx="5" ry="5" style="fill:#cae3f4;"/><rect x="59.48" y="199.34" width="260" height="10" rx="5" ry="5" style="fill:#0070ba;"/><rect x="59.48" y="229.5" width="180" height="10" rx="5" ry="5" style="fill:#0070ba;"/><rect x="416.23" y="97.54" width="50" height="30" rx="15" ry="15" style="fill:#66cb92;"/><path d="M441.88,103.13c.94,0,1.77.13,2.5.4.73.26,1.34.62,1.85,1.07.5.45.88.97,1.14,1.57s.39,1.22.39,1.88c0,.6-.06,1.12-.18,1.58-.12.45-.3.85-.54,1.18-.24.33-.53.62-.88.85-.35.23-.75.43-1.2.58,2.1.73,3.15,2.15,3.15,4.28,0,1.01-.18,1.88-.55,2.63-.36.75-.85,1.36-1.46,1.86s-1.32.86-2.13,1.11c-.81.25-1.65.37-2.52.37s-1.7-.1-2.41-.29-1.33-.5-1.87-.91-1.02-.94-1.44-1.58c-.41-.64-.77-1.4-1.07-2.29l1.79-.73c.16-.07.31-.12.46-.14.15-.03.3-.04.45-.04.28,0,.53.05.75.16.22.11.39.27.5.47.39.72.8,1.24,1.24,1.57.44.32.95.49,1.54.49.45,0,.84-.08,1.18-.23.33-.15.61-.35.83-.58.22-.24.39-.51.5-.81.11-.3.17-.61.17-.92,0-.41-.03-.77-.08-1.1-.06-.33-.21-.6-.47-.84-.26-.23-.65-.41-1.18-.54s-1.25-.19-2.19-.19v-2.78c.79,0,1.42-.06,1.91-.18.49-.12.86-.29,1.12-.5s.44-.47.53-.77c.09-.3.13-.64.13-1,0-.75-.18-1.32-.54-1.72-.36-.4-.91-.6-1.64-.6-.3,0-.58.04-.83.13-.25.09-.48.2-.68.35-.2.15-.37.32-.51.52-.14.2-.26.42-.34.65-.14.39-.31.67-.53.85-.21.17-.5.26-.86.26-.09,0-.18,0-.28-.01-.1,0-.2-.02-.31-.04l-2.13-.38c.14-.94.4-1.77.8-2.47s.88-1.29,1.47-1.75c.58-.47,1.25-.82,2.01-1.05.75-.23,1.56-.34,2.43-.34Z" style="fill:#fff;"/><path d="M176.53,273.55c-2.09-.15-3.7,1.59-3.7,3.55v1.69c0,4.29-2.92,6.09-4.46,6.76-.25.11-.53.17-.84.21-.1-1.47-1.32-2.63-2.81-2.63h-2.41c-1.55,0-2.81,1.26-2.81,2.81v16.89c0,1.55,1.26,2.81,2.81,2.81h2.41c1.46,0,2.66-1.11,2.8-2.54,1.35.1,2.68.48,4.33.94.31.09.63.18.97.27,2.36.65,5.17,1.33,8.92,1.33,3.52,0,5.94-.33,7.37-2.21.68-.89,1.04-2.02,1.31-3.3.24-1.14.42-2.53.64-4.15l.08-.63c.51-3.84.53-6.72-.36-8.68-.47-1.04-1.19-1.81-2.18-2.3-.95-.48-2.07-.65-3.27-.65h-3.3c.03-.22.06-.45.09-.69.04-.29.08-.6.12-.92.1-.78.19-1.62.19-2.31,0-2-.36-3.62-1.48-4.73-1.1-1.08-2.68-1.41-4.41-1.54ZM167.52,300.7c1.7.1,3.34.57,5.02,1.05.3.09.61.17.91.26,2.26.63,4.84,1.24,8.27,1.24,3.66,0,4.83-.44,5.45-1.26.35-.46.62-1.16.87-2.33.22-1.04.39-2.33.61-3.98l.08-.62c.51-3.86.41-6.1-.17-7.36-.26-.57-.6-.91-1.06-1.14-.49-.25-1.19-.39-2.19-.39h-3.81c-1.1,0-2.08-.92-1.95-2.14.04-.39.11-.86.17-1.34.04-.29.08-.57.11-.85.1-.77.17-1.48.17-2.01,0-1.81-.34-2.6-.76-3.01-.44-.44-1.24-.73-2.89-.85-.56-.04-1.12.44-1.12,1.14v1.69c0,5.71-4,8.14-5.92,8.97-.6.26-1.21.37-1.79.42v12.51ZM162.3,303.24c-.22,0-.4-.18-.4-.4v-16.89c0-.22.18-.4.4-.4h2.41c.22,0,.4.18.4.4v16.89c0,.22-.18.4-.4.4h-2.41Z" style="fill:#0070ba; fill-rule:evenodd;"/><path d="M120.33,293.23c.48-.36,1.16-.26,1.52.21.01.01.02.03.03.04.03.04.08.09.15.17.15.15.37.35.68.55.61.4,1.53.82,2.77.82s2.16-.41,2.77-.82c.31-.2.53-.41.68-.55.07-.07.12-.13.15-.17.01-.01.02-.02.03-.04.36-.48,1.04-.57,1.52-.21.48.36.58,1.05.22,1.53l-.04.05s-.04.05-.08.09c-.06.07-.15.17-.27.29-.23.23-.57.53-1.01.82-.89.6-2.22,1.18-3.98,1.18s-3.09-.59-3.98-1.18c-.44-.3-.78-.59-1.01-.82-.17-.17-.29-.31-.34-.38-.38-.48-.32-1.2.18-1.58Z" style="fill:#0070ba;"/><path d="M125.48,273.6c-8.84,0-16,7.16-16,16s7.16,16,16,16,16-7.16,16-16-7.16-16-16-16ZM111.66,289.6c0-7.63,6.19-13.82,13.82-13.82s13.82,6.19,13.82,13.82-6.19,13.82-13.82,13.82-13.82-6.19-13.82-13.82Z" style="fill:#0070ba; fill-rule:evenodd;"/><path d="M121.12,287.78c0,1-.81,1.82-1.82,1.82s-1.82-.81-1.82-1.82.81-1.82,1.82-1.82,1.82.81,1.82,1.82Z" style="fill:#0070ba;"/><path d="M131.66,289.6c1,0,1.82-.81,1.82-1.82s-.81-1.82-1.82-1.82-1.82.81-1.82,1.82.81,1.82,1.82,1.82Z" style="fill:#0070ba;"/><path d="M78.55,302.04c-.7.44-1.29.79-1.7,1.02-.22.13-.45.25-.67.37-.22.11-.45.17-.69.17s-.47-.06-.69-.17c-.23-.12-.45-.24-.67-.37-.41-.24-1-.58-1.7-1.02-1.4-.89-3.28-2.18-5.16-3.8-3.68-3.17-7.77-7.94-7.77-13.64,0-5.33,4.17-9,8.5-9,3.09,0,5.81,1.6,7.5,4.04,1.69-2.44,4.41-4.04,7.5-4.04,4.33,0,8.5,3.67,8.5,9,0,5.7-4.09,10.46-7.77,13.64-1.88,1.62-3.76,2.92-5.16,3.8Z" style="fill:#0070ba;"/></svg>