<?xml version="1.0" encoding="UTF-8"?><svg id="b" xmlns="http://www.w3.org/2000/svg" viewBox="0 0 1000 1000"><path d="M941.78,339.47h0v486.94c0,11.03-8.97,20-20,20H68.26v1.47c0,13.81,11.19,25,25,25h848.52c13.81,0,25-11.19,25-25v-483.4c0-13.81-11.19-25-25-25Z" style="fill:#cae3f4;"/><path d="M941.78,826.41v-503.4c0-11.03-8.97-20-20-20H53.26c-11.03,0-20,8.97-20,20v503.4c0,11.03,8.97,20,20,20h868.52c11.03,0,20-8.97,20-20ZM43.26,826.41v-503.4c0-5.51,4.49-10,10-10h868.52c5.51,0,10,4.49,10,10v503.4c0,5.51-4.49,10-10,10H53.26c-5.51,0-10-4.49-10-10Z" style="fill:#0070ba;"/><path d="M53.26,269.01h868.52c11.05,0,20.04-8.99,20.04-20.03v-101.81c0-11.05-8.99-20.03-20.04-20.03H53.26c-11.05,0-20.04,8.99-20.04,20.03v101.81c0,11.05,8.99,20.03,20.04,20.03ZM43.29,147.16c0-5.49,4.47-9.97,9.96-9.97h868.52c5.5,0,9.96,4.47,9.96,9.97v101.81c0,5.49-4.47,9.97-9.96,9.97H53.26c-5.5,0-9.96-4.47-9.96-9.97v-101.81Z" style="fill:#cae3f4;"/><path d="M113.12,213.07h370c8.28,0,15-6.72,15-15s-6.72-15-15-15H113.12c-8.28,0-15,6.72-15,15s6.72,15,15,15Z" style="fill:#cae3f4;"/><path d="M851.79,209.58c.82.73,1.84,1.09,2.87,1.09s2.05-.36,2.87-1.09l18.65-16.57c1.78-1.58,1.94-4.31.36-6.09-1.58-1.78-4.31-1.94-6.09-.36l-15.79,14.03-15.79-14.03c-1.78-1.58-4.51-1.42-6.09.36-1.58,1.78-1.42,4.51.36,6.09l18.65,16.57Z" style="fill:#0070ba;"/><path d="M209.35,451.37c.7,1.12,1.5,1.9,2.4,2.35.91.45,1.85.67,2.82.67s1.94-.22,2.86-.67c.92-.45,1.73-1.23,2.43-2.35.71-1.12,1.27-2.62,1.69-4.51.42-1.89.63-4.27.63-7.14s-.21-5.26-.63-7.14c-.42-1.89-.98-3.39-1.69-4.51s-1.52-1.9-2.43-2.35c-.92-.45-1.87-.67-2.86-.67s-1.91.22-2.82.67c-.91.45-1.71,1.23-2.4,2.35-.7,1.12-1.25,2.62-1.66,4.51s-.62,4.27-.62,7.14.21,5.26.62,7.14c.41,1.89.97,3.39,1.66,4.51Z" style="fill:#cae3f4;"/><path d="M622.56,475.46c2.76,0,5-2.24,5-5v-62.59c0-2.76-2.24-5-5-5H134.04c-2.76,0-5,2.24-5,5v62.59c0,2.76,2.24,5,5,5h488.52ZM241.94,453.67h28.3v6h-28.3v-6ZM201.16,430.68c.73-2.55,1.75-4.65,3.05-6.32,1.3-1.67,2.83-2.91,4.6-3.72s3.69-1.22,5.76-1.22,4,.41,5.78,1.22c1.79.81,3.33,2.06,4.64,3.72,1.31,1.67,2.33,3.77,3.08,6.32.74,2.55,1.11,5.56,1.11,9.04s-.37,6.47-1.11,9.02c-.74,2.56-1.77,4.67-3.08,6.33-1.31,1.67-2.86,2.91-4.64,3.72-1.79.81-3.71,1.22-5.78,1.22s-3.99-.41-5.76-1.22c-1.77-.81-3.3-2.06-4.6-3.72-1.3-1.67-2.32-3.78-3.05-6.33-.73-2.55-1.1-5.56-1.1-9.02s.37-6.49,1.1-9.04ZM188.65,454.22c.21-.51.5-.95.88-1.32.38-.37.82-.66,1.33-.88.51-.22,1.06-.33,1.65-.33s1.11.11,1.62.33.95.51,1.32.88c.37.37.66.81.88,1.32s.33,1.05.33,1.62-.11,1.13-.33,1.63c-.22.5-.51.94-.88,1.3-.37.37-.81.66-1.32.87-.51.21-1.05.32-1.62.32s-1.14-.11-1.65-.32c-.51-.21-.96-.5-1.33-.87-.38-.37-.67-.8-.88-1.3-.21-.5-.32-1.05-.32-1.63s.1-1.11.32-1.62ZM171.11,419.8h5.58v34.7h7.14v5.08h-21.98v-5.08h8.05v-23.16c0-.9.03-1.84.08-2.83l-5.71,4.78c-.24.2-.48.34-.73.41-.25.07-.49.11-.73.11-.37,0-.7-.08-1-.23-.3-.16-.53-.33-.67-.54l-2.14-2.94,12.12-10.3Z" style="fill:#cae3f4;"/><path d="M637.56,470.46v-62.59c0-8.27-6.73-15-15-15H134.04c-8.27,0-15,6.73-15,15v62.59c0,8.27,6.73,15,15,15h488.52c8.27,0,15-6.73,15-15ZM129.04,470.46v-62.59c0-2.76,2.24-5,5-5h488.52c2.76,0,5,2.24,5,5v62.59c0,2.76-2.24,5-5,5H134.04c-2.76,0-5-2.24-5-5Z" style="fill:#0070ba;"/><rect x="241.94" y="453.67" width="28.3" height="6" style="fill:#0070ba;"/><path d="M161.81,433.58c.3.16.64.23,1,.23.24,0,.48-.04.73-.11.25-.07.49-.21.73-.41l5.71-4.78c-.05.99-.08,1.93-.08,2.83v23.16h-8.05v5.08h21.98v-5.08h-7.14v-34.7h-5.58l-12.12,10.3,2.14,2.94c.15.2.37.38.67.54Z" style="fill:#0070ba;"/><path d="M189.53,458.78c.38.37.82.66,1.33.87.51.21,1.06.32,1.65.32s1.11-.11,1.62-.32c.51-.21.95-.5,1.32-.87.37-.37.66-.8.88-1.3.22-.5.33-1.05.33-1.63s-.11-1.11-.33-1.62-.51-.95-.88-1.32c-.37-.37-.81-.66-1.32-.88s-1.05-.33-1.62-.33-1.14.11-1.65.33c-.51.22-.96.51-1.33.88-.38.37-.67.81-.88,1.32-.21.51-.32,1.05-.32,1.62s.1,1.13.32,1.63c.21.5.5.94.88,1.3Z" style="fill:#0070ba;"/><path d="M204.21,455.07c1.3,1.67,2.83,2.91,4.6,3.72,1.77.81,3.69,1.22,5.76,1.22s4-.41,5.78-1.22c1.79-.81,3.33-2.06,4.64-3.72,1.31-1.67,2.33-3.78,3.08-6.33.74-2.55,1.11-5.56,1.11-9.02s-.37-6.49-1.11-9.04c-.74-2.55-1.77-4.65-3.08-6.32-1.31-1.67-2.86-2.91-4.64-3.72-1.79-.81-3.71-1.22-5.78-1.22s-3.99.41-5.76,1.22-3.3,2.06-4.6,3.72c-1.3,1.67-2.32,3.77-3.05,6.32s-1.1,5.56-1.1,9.04.37,6.47,1.1,9.02c.73,2.56,1.75,4.67,3.05,6.33ZM207.69,432.57c.41-1.89.97-3.39,1.66-4.51.7-1.12,1.5-1.9,2.4-2.35.91-.45,1.85-.67,2.82-.67s1.94.22,2.86.67c.92.45,1.73,1.23,2.43,2.35s1.27,2.62,1.69,4.51c.42,1.89.63,4.27.63,7.14s-.21,5.26-.63,7.14c-.42,1.89-.98,3.39-1.69,4.51-.71,1.12-1.52,1.9-2.43,2.35-.92.45-1.87.67-2.86.67s-1.91-.22-2.82-.67c-.91-.45-1.71-1.23-2.4-2.35-.7-1.12-1.25-2.62-1.66-4.51-.41-1.89-.62-4.27-.62-7.14s.21-5.26.62-7.14Z" style="fill:#0070ba;"/><path d="M583.3,609.69v-62.59c0-8.27-6.73-15-15-15H188.3c-8.27,0-15,6.73-15,15v62.59c0,8.27,6.73,15,15,15h380c8.27,0,15-6.73,15-15ZM340.45,592.86v6h-28.3v-6h28.3ZM294.88,595.07c0,.59-.11,1.13-.33,1.63-.22.5-.51.94-.88,1.3-.37.37-.81.66-1.32.87-.51.21-1.05.32-1.62.32s-1.14-.11-1.65-.32c-.51-.21-.96-.5-1.33-.87-.38-.37-.67-.8-.88-1.3-.21-.5-.32-1.05-.32-1.63s.1-1.11.32-1.62c.21-.51.5-.95.88-1.32.38-.37.82-.66,1.33-.88.51-.22,1.06-.33,1.65-.33s1.11.11,1.62.33.95.51,1.32.88c.37.37.66.81.88,1.32s.33,1.05.33,1.62ZM262.5,572.52c-.24.2-.48.34-.73.41-.25.07-.49.11-.73.11-.37,0-.7-.08-1-.23-.3-.16-.53-.33-.67-.54l-2.14-2.94,12.12-10.3h5.58v34.7h7.14v5.08h-21.98v-5.08h8.05v-23.16c0-.9.03-1.84.08-2.83l-5.71,4.78ZM250.66,595.07c0,.59-.11,1.13-.33,1.63-.22.5-.51.94-.88,1.3-.37.37-.81.66-1.32.87-.51.21-1.05.32-1.62.32s-1.14-.11-1.65-.32c-.51-.21-.96-.5-1.33-.87-.38-.37-.67-.8-.88-1.3-.21-.5-.32-1.05-.32-1.63s.1-1.11.32-1.62c.21-.51.5-.95.88-1.32.38-.37.82-.66,1.33-.88.51-.22,1.06-.33,1.65-.33s1.11.11,1.62.33.95.51,1.32.88c.37.37.66.81.88,1.32s.33,1.05.33,1.62ZM218.27,572.52c-.24.2-.48.34-.73.41-.25.07-.49.11-.73.11-.37,0-.7-.08-1-.23-.3-.16-.53-.33-.67-.54l-2.14-2.94,12.12-10.3h5.58v34.7h7.14v5.08h-21.98v-5.08h8.05v-23.16c0-.9.03-1.84.08-2.83l-5.71,4.78Z" style="fill:#66cb92;"/><rect x="312.15" y="592.86" width="28.3" height="6" style="fill:#fff;"/><path d="M223.9,593.72h-8.05v5.08h21.98v-5.08h-7.14v-34.7h-5.58l-12.12,10.3,2.14,2.94c.15.2.37.38.67.54.3.16.64.23,1,.23.24,0,.48-.04.73-.11.25-.07.49-.21.73-.41l5.71-4.78c-.05.99-.08,1.93-.08,2.83v23.16Z" style="fill:#fff;"/><path d="M248.13,591.25c-.51-.22-1.05-.33-1.62-.33s-1.14.11-1.65.33c-.51.22-.96.51-1.33.88-.38.37-.67.81-.88,1.32-.21.51-.32,1.05-.32,1.62s.1,1.13.32,1.63c.21.5.5.94.88,1.3.38.37.82.66,1.33.87.51.21,1.06.32,1.65.32s1.11-.11,1.62-.32c.51-.21.95-.5,1.32-.87.37-.37.66-.8.88-1.3.22-.5.33-1.05.33-1.63s-.11-1.11-.33-1.62-.51-.95-.88-1.32c-.37-.37-.81-.66-1.32-.88Z" style="fill:#fff;"/><path d="M268.13,593.72h-8.05v5.08h21.98v-5.08h-7.14v-34.7h-5.58l-12.12,10.3,2.14,2.94c.15.2.37.38.67.54.3.16.64.23,1,.23.24,0,.48-.04.73-.11.25-.07.49-.21.73-.41l5.71-4.78c-.05.99-.08,1.93-.08,2.83v23.16Z" style="fill:#fff;"/><path d="M292.36,591.25c-.51-.22-1.05-.33-1.62-.33s-1.14.11-1.65.33c-.51.22-.96.51-1.33.88-.38.37-.67.81-.88,1.32-.21.51-.32,1.05-.32,1.62s.1,1.13.32,1.63c.21.5.5.94.88,1.3.38.37.82.66,1.33.87.51.21,1.06.32,1.65.32s1.11-.11,1.62-.32c.51-.21.95-.5,1.32-.87.37-.37.66-.8.88-1.3.22-.5.33-1.05.33-1.63s-.11-1.11-.33-1.62-.51-.95-.88-1.32c-.37-.37-.81-.66-1.32-.88Z" style="fill:#fff;"/><path d="M786.46,681.24H234.3c-2.76,0-5,2.24-5,5v62.59c0,2.76,2.24,5,5,5h552.17c2.76,0,5-2.24,5-5v-62.59c0-2.76-2.24-5-5-5ZM283.83,737.95h-21.98v-5.08h8.05v-23.16c0-.9.03-1.84.08-2.83l-5.71,4.78c-.24.2-.48.34-.73.41-.25.07-.49.11-.73.11-.37,0-.7-.08-1-.23-.3-.16-.53-.33-.67-.54l-2.14-2.94,12.12-10.3h5.58v34.7h7.14v5.08ZM296.33,735.85c-.22.5-.51.94-.88,1.3-.37.37-.81.66-1.32.87s-1.05.32-1.62.32-1.14-.11-1.65-.32c-.51-.21-.96-.5-1.33-.87s-.67-.8-.88-1.3c-.21-.5-.32-1.05-.32-1.63s.1-1.11.32-1.62c.21-.51.5-.95.88-1.32s.82-.66,1.33-.88c.51-.22,1.06-.33,1.65-.33s1.11.11,1.62.33.95.51,1.32.88c.37.37.66.81.88,1.32s.33,1.05.33,1.62-.11,1.13-.33,1.63ZM328.06,737.95h-21.98v-5.08h8.05v-23.16c0-.9.03-1.84.08-2.83l-5.71,4.78c-.24.2-.48.34-.73.41-.25.07-.49.11-.73.11-.37,0-.7-.08-1-.23-.3-.16-.53-.33-.67-.54l-2.14-2.94,12.12-10.3h5.58v34.7h7.14v5.08ZM340.56,735.85c-.22.5-.51.94-.88,1.3-.37.37-.81.66-1.32.87s-1.05.32-1.62.32-1.14-.11-1.65-.32c-.51-.21-.96-.5-1.33-.87s-.67-.8-.88-1.3c-.21-.5-.32-1.05-.32-1.63s.1-1.11.32-1.62c.21-.51.5-.95.88-1.32s.82-.66,1.33-.88c.51-.22,1.06-.33,1.65-.33s1.11.11,1.62.33.95.51,1.32.88c.37.37.66.81.88,1.32s.33,1.05.33,1.62-.11,1.13-.33,1.63ZM365.39,737.95c-.49,0-.89-.13-1.19-.38-.3-.26-.55-.55-.76-.88l-5.99-9.81c-.17.66-.39,1.21-.69,1.65l-5.27,8.16c-.2.31-.45.6-.74.87s-.66.4-1.1.4h-6.07l9.64-14.53-9.26-13.65h6.54c.5,0,.86.07,1.1.21.24.14.45.36.63.67l5.91,9.42c.09-.31.21-.62.34-.93.14-.31.31-.62.51-.93l4.75-7.42c.22-.35.45-.6.69-.77.24-.17.53-.25.88-.25h6.24l-9.29,13.35,9.67,14.83h-6.54ZM413.51,737.88h-28.3v-6h28.3v6Z" style="fill:#cae3f4;"/><path d="M786.46,671.24H234.3c-8.27,0-15,6.73-15,15v62.59c0,8.27,6.73,15,15,15h552.17c8.27,0,15-6.73,15-15v-62.59c0-8.27-6.73-15-15-15ZM791.46,748.83c0,2.76-2.24,5-5,5H234.3c-2.76,0-5-2.24-5-5v-62.59c0-2.76,2.24-5,5-5h552.17c2.76,0,5,2.24,5,5v62.59Z" style="fill:#0070ba;"/><rect x="385.21" y="731.88" width="28.3" height="6" style="fill:#0070ba;"/><path d="M276.68,698.17h-5.58l-12.12,10.3,2.14,2.94c.15.2.37.38.67.54.3.16.64.23,1,.23.24,0,.48-.04.73-.11.25-.07.49-.21.73-.41l5.71-4.78c-.05.99-.08,1.93-.08,2.83v23.16h-8.05v5.08h21.98v-5.08h-7.14v-34.7Z" style="fill:#0070ba;"/><path d="M295.45,731.27c-.37-.37-.81-.66-1.32-.88s-1.05-.33-1.62-.33-1.14.11-1.65.33c-.51.22-.96.51-1.33.88s-.67.81-.88,1.32c-.21.51-.32,1.05-.32,1.62s.1,1.13.32,1.63c.21.5.5.94.88,1.3s.82.66,1.33.87c.51.21,1.06.32,1.65.32s1.11-.11,1.62-.32.95-.5,1.32-.87c.37-.37.66-.8.88-1.3s.33-1.05.33-1.63-.11-1.11-.33-1.62-.51-.95-.88-1.32Z" style="fill:#0070ba;"/><path d="M320.91,698.17h-5.58l-12.12,10.3,2.14,2.94c.15.2.37.38.67.54.3.16.64.23,1,.23.24,0,.48-.04.73-.11.25-.07.49-.21.73-.41l5.71-4.78c-.05.99-.08,1.93-.08,2.83v23.16h-8.05v5.08h21.98v-5.08h-7.14v-34.7Z" style="fill:#0070ba;"/><path d="M339.68,731.27c-.37-.37-.81-.66-1.32-.88s-1.05-.33-1.62-.33-1.14.11-1.65.33c-.51.22-.96.51-1.33.88s-.67.81-.88,1.32c-.21.51-.32,1.05-.32,1.62s.1,1.13.32,1.63c.21.5.5.94.88,1.3s.82.66,1.33.87c.51.21,1.06.32,1.65.32s1.11-.11,1.62-.32.95-.5,1.32-.87c.37-.37.66-.8.88-1.3s.33-1.05.33-1.63-.11-1.11-.33-1.62-.51-.95-.88-1.32Z" style="fill:#0070ba;"/><path d="M371.54,709.76h-6.24c-.35,0-.64.08-.88.25-.24.17-.47.42-.69.77l-4.75,7.42c-.2.31-.37.62-.51.93-.14.31-.25.62-.34.93l-5.91-9.42c-.18-.31-.39-.54-.63-.67-.24-.14-.6-.21-1.1-.21h-6.54l9.26,13.65-9.64,14.53h6.07c.44,0,.81-.13,1.1-.4s.54-.55.74-.87l5.27-8.16c.29-.44.52-.99.69-1.65l5.99,9.81c.2.33.45.62.76.88.3.26.7.38,1.19.38h6.54l-9.67-14.83,9.29-13.35Z" style="fill:#0070ba;"/></svg>