<?xml version="1.0" encoding="utf-8"?>
<!-- Generator: Adobe Illustrator 23.0.1, SVG Export Plug-In . SVG Version: 6.00 Build 0)  -->
<svg version="1.1" id="Layer_1" xmlns="http://www.w3.org/2000/svg" xmlns:xlink="http://www.w3.org/1999/xlink" x="0px" y="0px"
	 viewBox="0 0 20 20" style="enable-background:new 0 0 20 20;" xml:space="preserve" width="20" height="20">
<g>
	<path d="M19,6.71c-0.11,0.38-0.31,0.68-0.67,0.86c-0.6,0.3-1.32,0.08-1.65-0.51c-0.04-0.07-0.07-0.14-0.11-0.21
		c-0.64,0-1.27,0-1.93,0c-0.04,0.49-0.12,0.97-0.27,1.46c0.22,0,0.42,0,0.62,0c0.28,0,0.39,0.1,0.46,0.37
		c0.07,0.31,0.14,0.63,0.22,0.94c0.02,0.08,0.02,0.17,0.1,0.26c0.22,0.03,0.46,0.01,0.71,0.01c0.18-0.41,0.46-0.71,0.9-0.83
		C17.62,8.98,17.87,9,18.12,9.1c0.49,0.19,0.83,0.72,0.8,1.21c-0.03,0.59-0.41,1.06-0.95,1.2c-0.62,0.16-1.08-0.09-1.53-0.84
		c-0.29,0-0.6,0-0.9,0c-0.35,0-0.45-0.09-0.53-0.44c-0.08-0.37-0.17-0.74-0.26-1.13c-0.24-0.03-0.46-0.01-0.7-0.01
		c-0.19,0.31-0.36,0.63-0.56,0.92c-0.42,0.62-0.91,1.2-1.26,1.87c-0.21,0.39-0.37,0.8-0.43,1.24c0.59,0.53,0.57,1.25,0.17,1.77
		c0.25,0.33,0.37,0.71,0.25,1.14c-0.12,0.43-0.41,0.69-0.83,0.84c0,0.22,0,0.43,0,0.64c0,0.88-0.61,1.51-1.49,1.51
		c-0.64,0-1.29,0-1.93,0c-0.86-0.01-1.47-0.64-1.48-1.51c0-0.21,0-0.42,0-0.62c-0.96-0.61-1.09-1.04-0.59-2
		c-0.42-0.8-0.39-1.09,0.18-1.78c-0.11-0.62-0.36-1.18-0.71-1.72c-0.27-0.03-0.55,0.02-0.79-0.15c-0.23-0.17-0.34-0.4-0.34-0.7
		c-0.27-0.11-0.54-0.21-0.79-0.34c-0.06,0.05-0.11,0.09-0.16,0.13c-0.29,0.21-0.67,0.2-0.93-0.05c-0.27-0.26-0.54-0.53-0.79-0.8
		C1.31,9.21,1.31,8.81,1.54,8.52c0.03-0.04,0.07-0.08,0.1-0.12C1.63,8.37,1.63,8.35,1.62,8.33C1.5,8.1,1.41,7.86,1.31,7.59
		C0.93,7.58,0.65,7.4,0.5,7.04c0-0.49,0-0.97,0-1.46C0.64,5.2,0.92,5.03,1.31,5.01c0.1-0.27,0.2-0.54,0.33-0.79
		C1.62,4.19,1.61,4.17,1.59,4.15c-0.32-0.4-0.3-0.77,0.05-1.14C1.86,2.8,2.07,2.58,2.28,2.37C2.45,2.2,2.64,2.12,2.87,2.13
		c0.23,0,0.41,0.13,0.57,0.27C3.7,2.26,3.97,2.16,4.23,2.06C4.23,2.02,4.24,2,4.24,1.97C4.3,1.48,4.58,1.22,5.07,1.22
		c0.32,0,0.64,0,0.96,0c0.13,0,0.23-0.03,0.34-0.08c1.18-0.6,2.42-0.74,3.71-0.5c0.28,0.05,0.42,0.24,0.37,0.48
		C10.4,1.34,10.19,1.44,9.93,1.4C9.29,1.28,8.64,1.27,7.99,1.39C7.57,1.47,7.16,1.6,6.78,1.8C6.76,1.9,6.75,1.97,6.79,2.06
		c0.26,0.11,0.52,0.22,0.78,0.33C8.04,1.97,8.5,2.09,8.83,2.47C8.98,2.64,9.15,2.79,9.3,2.95c0.42,0.43,0.44,0.75,0.08,1.23
		C9.38,4.2,9.38,4.21,9.38,4.22C9.48,4.48,9.59,4.75,9.7,5c0.04,0.01,0.07,0.01,0.1,0.02c0.47,0.07,0.72,0.35,0.72,0.82
		c0,0.32,0,0.63,0,0.95c0,0.41-0.25,0.7-0.65,0.77C9.81,7.57,9.76,7.59,9.69,7.6C9.64,7.74,9.59,7.87,9.54,8
		C9.48,8.13,9.42,8.26,9.37,8.39C9.41,8.45,9.45,8.5,9.49,8.55c0.21,0.3,0.2,0.69-0.05,0.96c-0.25,0.26-0.5,0.52-0.77,0.77
		c-0.28,0.27-0.69,0.27-0.99,0.02c-0.04-0.03-0.07-0.06-0.11-0.09c-0.27,0.12-0.53,0.23-0.8,0.34c0,0.38-0.18,0.64-0.53,0.81
		c0.27,0.49,0.46,0.99,0.58,1.53c1.42,0,2.83,0,4.24,0c0.14-0.68,0.42-1.29,0.78-1.87c0.3-0.47,0.64-0.91,0.96-1.37
		c0.12-0.17,0.24-0.34,0.33-0.53c-0.07-0.05-0.14-0.03-0.2-0.03c-0.28-0.01-0.57,0.02-0.85-0.02c-0.23-0.03-0.37-0.2-0.36-0.4
		c0.02-0.21,0.17-0.35,0.4-0.36c0.39,0,0.78,0,1.17,0c0.08,0,0.16,0.02,0.25-0.04c0.17-0.45,0.27-0.92,0.29-1.41
		c-0.09-0.05-0.16-0.03-0.23-0.03c-0.64,0-1.28,0-1.91,0c-0.25,0-0.43-0.16-0.43-0.37c-0.01-0.22,0.16-0.39,0.42-0.41
		c0.05,0,0.11,0,0.16,0c0.6,0,1.19,0,1.79,0c0.07,0,0.15,0.02,0.2-0.04c0-0.44-0.15-1.19-0.3-1.4c-0.14-0.04-0.28-0.02-0.43-0.02
		c-0.33-0.01-0.66,0-0.99-0.01c-0.25-0.01-0.4-0.18-0.39-0.39c0.01-0.22,0.17-0.37,0.43-0.37c0.11,0,0.23,0,0.34,0
		c0.23,0,0.45,0,0.68,0c-0.01-0.12-0.07-0.19-0.12-0.27c-0.15-0.24-0.32-0.45-0.5-0.67c-0.18-0.21-0.17-0.43,0.01-0.58
		c0.17-0.15,0.39-0.12,0.57,0.08c0.34,0.38,0.63,0.8,0.86,1.26c0.03,0.06,0.05,0.13,0.13,0.17c0.19,0,0.4,0.02,0.62-0.01
		c0.09-0.38,0.17-0.75,0.26-1.11c0.1-0.4,0.18-0.47,0.6-0.47c0.29,0,0.57,0,0.84,0c0.5-0.77,0.96-1.01,1.57-0.82
		c0.53,0.16,0.9,0.66,0.91,1.21c0,0.55-0.36,1.05-0.9,1.22C17.42,4,16.96,3.77,16.44,3C16.21,2.99,15.97,2.98,15.71,3
		c-0.09,0.38-0.17,0.74-0.25,1.1c-0.1,0.41-0.19,0.48-0.61,0.49c-0.15,0-0.3-0.03-0.47,0.04c0.13,0.46,0.2,0.92,0.24,1.4
		c0.66,0,1.3,0,1.94,0c0.03-0.06,0.05-0.11,0.08-0.15c0.25-0.51,0.8-0.79,1.35-0.68c0.54,0.1,0.84,0.46,1.01,0.96
		C19,6.34,19,6.52,19,6.71z M2.9,9.71c0.04-0.06,0.07-0.12,0.11-0.17c0.26-0.26,0.36-0.28,0.68-0.09c0.3,0.18,0.62,0.3,0.95,0.39
		c0.27,0.07,0.35,0.18,0.38,0.46c0.01,0.09-0.03,0.2,0.05,0.29c0.29,0.01,0.6,0.03,0.89-0.01c0.05-0.12,0.03-0.22,0.04-0.33
		c0.02-0.23,0.11-0.35,0.33-0.4c0.39-0.1,0.75-0.25,1.1-0.46c0.19-0.12,0.34-0.09,0.51,0.07C8,9.54,8.06,9.63,8.13,9.66
		C8.37,9.42,8.6,9.19,8.85,8.93C8.79,8.88,8.71,8.82,8.64,8.75C8.48,8.59,8.46,8.43,8.57,8.24c0.2-0.35,0.36-0.72,0.46-1.11
		C9.08,6.9,9.21,6.81,9.44,6.8c0.1,0,0.22,0.03,0.33-0.04c0-0.31,0.02-0.62-0.01-0.93C9.66,5.79,9.57,5.8,9.49,5.8
		C9.2,5.8,9.09,5.71,9.01,5.43c-0.1-0.37-0.23-0.71-0.43-1.04C8.45,4.17,8.48,4.02,8.65,3.83C8.71,3.76,8.8,3.71,8.83,3.59
		C8.63,3.36,8.41,3.13,8.18,2.93C8.09,2.95,8.05,3.01,8.01,3.06C7.74,3.32,7.64,3.34,7.33,3.15c-0.29-0.17-0.6-0.3-0.93-0.39
		C6.09,2.68,6,2.57,5.99,2.25c0-0.08,0.02-0.16-0.06-0.24C5.64,2,5.34,1.98,5.05,2.02C4.99,2.15,5.02,2.26,5.01,2.37
		c-0.03,0.2-0.13,0.32-0.32,0.37C4.3,2.84,3.94,2.99,3.59,3.2C3.38,3.32,3.25,3.29,3.07,3.12c-0.07-0.07-0.13-0.16-0.23-0.2
		C2.62,3.16,2.4,3.39,2.14,3.66C2.19,3.7,2.26,3.74,2.31,3.79C2.55,4.02,2.56,4.16,2.4,4.44C2.21,4.75,2.08,5.09,1.99,5.45
		C1.93,5.69,1.8,5.79,1.55,5.8c-0.1,0.01-0.2-0.03-0.31,0.04c0,0.31,0,0.62,0,0.93C1.35,6.83,1.44,6.8,1.53,6.8
		C1.81,6.81,1.92,6.89,2,7.16c0.1,0.37,0.23,0.71,0.43,1.04c0.13,0.23,0.11,0.38-0.07,0.58C2.28,8.85,2.2,8.9,2.17,8.97
		C2.4,9.21,2.63,9.44,2.9,9.71z M7.26,16.92c0,0.25-0.01,0.47,0,0.69c0.01,0.34,0.27,0.62,0.61,0.63c0.71,0.01,1.42,0.01,2.13,0
		c0.27,0,0.48-0.15,0.57-0.41c0.1-0.29,0.04-0.6,0.04-0.91C9.49,16.92,8.39,16.92,7.26,16.92z M8.94,14.51c0.7,0,1.41,0,2.11,0
		c0.25,0,0.44-0.17,0.45-0.4c0.01-0.22-0.15-0.4-0.4-0.44c-0.05-0.01-0.11-0.01-0.16-0.01c-1.34,0-2.67,0-4.01,0
		c-0.1,0-0.19,0.01-0.28,0.04c-0.12,0.04-0.2,0.12-0.25,0.25c-0.1,0.29,0.1,0.56,0.42,0.57C7.53,14.52,8.23,14.51,8.94,14.51z
		 M8.94,16.12C8.94,16.12,8.94,16.12,8.94,16.12c0.49,0,0.99,0,1.48,0c0.23,0,0.47,0.01,0.7-0.01c0.21-0.01,0.38-0.2,0.39-0.41
		c0-0.22-0.16-0.39-0.38-0.41c-0.06-0.01-0.12-0.01-0.18-0.01c-1.34,0-2.67,0-4.01,0c-0.07,0-0.14,0-0.22,0.01
		c-0.15,0.02-0.25,0.1-0.31,0.24c-0.12,0.29,0.08,0.58,0.42,0.58C7.53,16.13,8.23,16.12,8.94,16.12z M17.76,6.92
		c0.27,0,0.49-0.21,0.5-0.47c0.01-0.27-0.21-0.5-0.49-0.5c-0.27,0-0.49,0.21-0.49,0.48C17.27,6.71,17.48,6.92,17.76,6.92z
		 M17.67,10.76c0.28,0,0.48-0.21,0.48-0.48c0-0.27-0.22-0.5-0.5-0.5c-0.26,0-0.49,0.22-0.49,0.49
		C17.17,10.55,17.39,10.76,17.67,10.76z M17.67,3.09c0.27,0,0.49-0.21,0.49-0.48c0-0.27-0.22-0.5-0.49-0.5
		c-0.27,0-0.49,0.22-0.49,0.48C17.17,2.86,17.39,3.09,17.67,3.09z"/>
	<path d="M11.56,1.97c-0.22,0-0.38-0.16-0.38-0.37c0-0.22,0.16-0.38,0.38-0.38c0.21,0,0.37,0.16,0.37,0.37
		C11.93,1.8,11.77,1.97,11.56,1.97z"/>
	<path d="M5.13,7.17c-0.35,0-0.69,0-1.03,0c-0.09,0.12-0.12,0.27-0.18,0.4c-0.1,0.23-0.3,0.34-0.5,0.26c-0.21-0.08-0.3-0.3-0.2-0.54
		C3.56,6.39,3.9,5.51,4.25,4.62c0.07-0.18,0.19-0.29,0.38-0.28c0.18,0,0.3,0.11,0.36,0.28C5.33,5.5,5.67,6.38,6.01,7.27
		c0.1,0.27,0.02,0.48-0.2,0.56C5.6,7.91,5.41,7.8,5.3,7.55C5.25,7.43,5.22,7.29,5.13,7.17z M4.62,5.79C4.52,6,4.45,6.17,4.4,6.36
		c0.15,0.02,0.28,0.05,0.43-0.03C4.76,6.16,4.7,6,4.62,5.79z"/>
	<path d="M6.56,6.09c0-0.41,0-0.83,0-1.24c0-0.09,0-0.17,0.03-0.25c0.06-0.17,0.18-0.26,0.36-0.26c0.17,0,0.3,0.09,0.36,0.26
		c0.03,0.08,0.03,0.15,0.03,0.23c0,0.85,0,1.7,0,2.55c0,0.02,0,0.04,0,0.05C7.32,7.68,7.17,7.85,6.95,7.85
		c-0.22,0-0.38-0.17-0.38-0.42C6.56,6.98,6.56,6.53,6.56,6.09C6.56,6.09,6.56,6.09,6.56,6.09z"/>
</g>
</svg>
